<svg version="1.1" xmlns="http://www.w3.org/2000/svg" xmlns:xlink="http://www.w3.org/1999/xlink" width="50px" height="45px" viewBox="0,0,256,256"><g fill="#ffffff" fill-rule="nonzero" stroke="none" stroke-width="1" stroke-linecap="butt" stroke-linejoin="miter" stroke-miterlimit="10" stroke-dasharray="" stroke-dashoffset="0" font-family="none" font-weight="none" font-size="none" text-anchor="none" style="mix-blend-mode: normal"><g transform="scale(5.12,5.12)"><path d="M19,2c-1.19922,0 -2,0.80078 -2,2v6c0,1.19922 0.80078,2 2,2h12c1.19922,0 2,-0.80078 2,-2v-6c0,-1.19922 -0.80078,-2 -2,-2zM9,4c-1.69922,0 -3,1.30078 -3,3v38c0,1.69922 1.30078,3 3,3h32c1.69922,0 3,-1.30078 3,-3v-38c0,-1.69922 -1.30078,-3 -3,-3h-6v6h3v32h-26v-32h3v-6zM19,19v2h5v11h2v-11h5v-2z"></path></g></g></svg>